<svg
          xmlns="http://www.w3.org/2000/svg"
          width="100%"
          height="100%"
          x="0"
          y="0"
          version="1.1"
          viewBox="0 0 127.433 132.743"
          xmlSpace="preserve"
        >
          <rect
            width="127.433"
            height="132.743"
            stroke="#4e4b5c"
            fill="#bdadea"
            strokeWidth="15px"
          />

          <circle cx="86.238" cy="57.885" r="6.667" fill="#4e4b5c" />
          <circle cx="40.072" cy="57.885" r="6.667" fill="#4e4b5c" />
            <path
              fill="#4e4b5c"
              d="M71.916 62.782a2.004 2.004 0 00-3.584-1.324c-.758.766-2.483 2.235-4.696 2.358-1.696.094-3.438-.625-5.191-2.137a.106.106 0 00-.011-.009l.002.005a1.988 1.988 0 00-1.235-.509 2.002 2.002 0 00-1.208 3.666l-.003-.001c2.221 1.871 4.536 2.88 6.912 2.986.333.014.67.012 1.007-.01 3.163-.191 5.572-1.942 6.888-3.166l.452-.453c.021-.019.04-.041.06-.061l.034-.034-.021.02c.344-.342.57-.806.594-1.331z"
            />
        </svg>